<svg xmlns="http://www.w3.org/2000/svg" width="240" height="240" viewBox="0 0 240 240">
  <rect width="240" height="240" fill="#ffffff"/>
  <rect x="18" y="18" width="58" height="58" fill="#111111"/>
  <rect x="30" y="30" width="34" height="34" fill="#ffffff"/>
  <rect x="40" y="40" width="14" height="14" fill="#111111"/>
  <rect x="164" y="18" width="58" height="58" fill="#111111"/>
  <rect x="176" y="30" width="34" height="34" fill="#ffffff"/>
  <rect x="186" y="40" width="14" height="14" fill="#111111"/>
  <rect x="18" y="164" width="58" height="58" fill="#111111"/>
  <rect x="30" y="176" width="34" height="34" fill="#ffffff"/>
  <rect x="40" y="186" width="14" height="14" fill="#111111"/>
  <g fill="#111111">
    <rect x="92" y="18" width="12" height="12"/>
    <rect x="116" y="18" width="24" height="12"/>
    <rect x="92" y="42" width="24" height="12"/>
    <rect x="128" y="42" width="12" height="24"/>
    <rect x="92" y="78" width="12" height="24"/>
    <rect x="116" y="90" width="36" height="12"/>
    <rect x="164" y="90" width="12" height="12"/>
    <rect x="188" y="90" width="34" height="12"/>
    <rect x="18" y="92" width="24" height="12"/>
    <rect x="54" y="104" width="22" height="12"/>
    <rect x="92" y="116" width="12" height="36"/>
    <rect x="116" y="116" width="24" height="12"/>
    <rect x="152" y="116" width="36" height="12"/>
    <rect x="200" y="116" width="22" height="12"/>
    <rect x="116" y="140" width="12" height="12"/>
    <rect x="140" y="140" width="12" height="24"/>
    <rect x="176" y="140" width="12" height="12"/>
    <rect x="212" y="140" width="10" height="34"/>
    <rect x="92" y="176" width="24" height="12"/>
    <rect x="128" y="176" width="12" height="34"/>
    <rect x="152" y="176" width="12" height="12"/>
    <rect x="176" y="176" width="46" height="12"/>
    <rect x="92" y="212" width="12" height="10"/>
    <rect x="116" y="212" width="36" height="10"/>
    <rect x="176" y="212" width="12" height="10"/>
    <rect x="200" y="200" width="22" height="22"/>
  </g>
  <rect x="81" y="81" width="78" height="78" rx="10" fill="#ffffff"/>
  <rect x="96" y="98" width="48" height="32" rx="16" fill="#ff6f15"/>
  <circle cx="112" cy="114" r="4" fill="#ffffff"/>
  <circle cx="128" cy="114" r="4" fill="#ffffff"/>
  <text x="120" y="149" text-anchor="middle" font-family="Arial, sans-serif" font-size="12" font-weight="700" fill="#111111">AOZOOM</text>
</svg>
